# xmcd
#
# Track frame offsets:
#	150
#	23580
#	39299
#	60590
#	84734
#	102687
#	120013
#	139033
#	162395
#	182898
#	202159
#
# Disc length: 2877 seconds
#
# Revision: 1
# Processed by: cddbd v1.5.2PL0 Copyright (c) Steve Scherf et al.
# Submitted via: audiograbber 1.83.01
#
DISCID=900b3b0b
DTITLE=Seal - System
DYEAR=2007
DGENRE=Pop
TTITLE0=If It's In My Mind, It's On My
TTITLE1=Amazing (Thin White Duke Edit)
TTITLE2=Just Like Before
TTITLE3=Loaded
TTITLE4=Wedding Day
TTITLE5=System
TTITLE6=Dumb
TTITLE7=The Right Life
TTITLE8=Rolling
TTITLE9=Immaculate
TTITLE10=Amazing
EXTD=
EXTT0=
EXTT1=
EXTT2=
EXTT3=
EXTT4=
EXTT5=
EXTT6=
EXTT7=
EXTT8=
EXTT9=
EXTT10=
PLAYORDER=
